<?xml version="1.0" encoding="UTF-8"?>
<svg version="1.1" xmlns="http://www.w3.org/2000/svg" width="200" height="200">
<path d="M0 0 C66 0 132 0 200 0 C200 66 200 132 200 200 C134 200 68 200 0 200 C0 134 0 68 0 0 Z " fill="#2974B2" transform="translate(0,0)"/>
<path d="M0 0 C66 0 132 0 200 0 C200 66 200 132 200 200 C134 200 68 200 0 200 C0 134 0 68 0 0 Z M26 38 C9.2557757 58.93726878 1.58998059 84.54098075 4.21972656 111.22998047 C7.0286553 135.33016184 19.59758601 158.2228961 38 174 C59.83130112 190.91301445 85.81212128 198.82124231 113.42578125 195.5390625 C138.31693229 191.95444205 161.49812591 178.18650304 176.77807617 158.24487305 C192.14864859 137.36415055 199.0660471 111.87843607 195.453125 86.09765625 C194.77275419 82.67690303 193.94563082 79.35638064 193 76 C192.70996094 74.90300781 192.41992188 73.80601563 192.12109375 72.67578125 C185.47276648 49.17018903 169.54715778 29.32372921 148.56640625 16.94921875 C107.40260781 -5.93223838 57.31436105 2.2490079 26 38 Z " fill="#FCFDFD" transform="translate(0,0)"/>
<path d="M0 0 C12.94698245 11.0556311 21.21550526 26.44184169 22.56640625 43.50390625 C23.02547898 62.78496099 17.19987173 79.40387659 3.96289062 93.36181641 C2.15875733 95.19118686 0.59397787 96.74597981 -1.71875 97.90234375 C-1.5021875 97.15210938 -1.285625 96.401875 -1.0625 95.62890625 C1.62612743 85.74571097 3.18436219 76.3351523 -1.71875 66.90234375 C-7.16077742 57.90664268 -15.55819801 53.84927794 -24.7355957 49.36401367 C-31.56301066 45.937523 -37.21755833 41.90472709 -40.71875 34.90234375 C-41.30192027 31.14495552 -41.7279989 27.45637752 -39.58984375 24.1640625 C-38.09375 22.77734375 -38.09375 22.77734375 -34.71875 20.90234375 C-29.17350297 21.12901078 -24.90328985 23.65714359 -20.15625 26.27734375 C-19.41439453 26.67695312 -18.67253906 27.0765625 -17.90820312 27.48828125 C-14.12235131 29.53796772 -10.38860868 31.64955921 -6.71875 33.90234375 C-8.51296631 29.86535705 -9.92426875 27.25753901 -13.71875 24.90234375 C-12.72875 24.90234375 -11.73875 24.90234375 -10.71875 24.90234375 C-13.41187595 19.3266257 -16.09223836 15.74781794 -21.984375 13.5234375 C-29.92445322 11.71990545 -37.63799569 11.67624075 -44.71875 15.90234375 C-48.35077795 19.62995138 -49.02790686 22.73272352 -49.21875 27.77734375 C-49.00398556 33.38200286 -47.99986824 37.35239428 -44.71875 41.90234375 C-44.30238281 42.48371094 -43.88601562 43.06507812 -43.45703125 43.6640625 C-38.66666632 49.25910815 -32.11892734 51.87680768 -25.61328125 54.9921875 C-18.45767104 58.4419376 -12.23990822 62.26189262 -7.71875 68.90234375 C-6.90625 71.77734375 -6.90625 71.77734375 -6.71875 73.90234375 C-7.19401123 73.57041016 -7.66927246 73.23847656 -8.15893555 72.89648438 C-13.15802621 69.56740225 -17.70787262 67.75199926 -23.53125 66.40234375 C-24.35020752 66.19786621 -25.16916504 65.99338867 -26.01293945 65.78271484 C-29.40045567 64.93737189 -32.79532526 64.12380516 -36.19042969 63.30957031 C-48.64293355 60.29791847 -61.25215903 56.97247199 -71.98046875 49.6875 C-74.59280504 47.62928277 -74.59280504 47.62928277 -77.71875 47.90234375 C-82.49005996 56.49070168 -82.93032958 65.28568938 -83.71875 74.90234375 C-82.39875 75.23234375 -81.07875 75.56234375 -79.71875 75.90234375 C-80.37875 75.90234375 -81.03875 75.90234375 -81.71875 75.90234375 C-80.41719994 79.98198656 -80.41719994 79.98198656 -78.71875 83.90234375 C-75.67293731 84.37188636 -75.67293731 84.37188636 -72.15625 84.52734375 C-70.95871094 84.60210937 -69.76117188 84.676875 -68.52734375 84.75390625 C-67.13708984 84.82738281 -67.13708984 84.82738281 -65.71875 84.90234375 C-69.05186475 86.68483555 -71.96355943 87.39027231 -75.71875 87.90234375 C-69.71186727 95.51234953 -63.23360687 101.29765168 -53.71875 103.90234375 C-46.49236235 104.58508222 -40.08186008 104.57880735 -33.71875 100.90234375 C-31.4115585 98.98780948 -31.4115585 98.98780948 -31.21875 95.71484375 C-31.89240673 90.57821122 -33.89558951 88.2698144 -37.71875 84.90234375 C-40.08524756 83.22463166 -42.47617895 81.66065799 -44.9609375 80.1640625 C-45.83105469 79.53951172 -45.83105469 79.53951172 -46.71875 78.90234375 C-46.71875 78.24234375 -46.71875 77.58234375 -46.71875 76.90234375 C-36.79850596 77.65104141 -27.59149798 80.38840646 -20.71875 87.90234375 C-18.20624417 91.6711025 -18.18858914 93.43384509 -18.71875 97.90234375 C-22.46389144 104.06370548 -27.79323491 106.50841407 -34.60888672 108.43725586 C-50.71655816 111.98795177 -65.89484034 106.79683851 -79.71875 98.90234375 C-89.73729105 92.4684183 -96.73725607 80.87877604 -100.71875 69.90234375 C-101.03714844 69.02707031 -101.35554688 68.15179688 -101.68359375 67.25 C-105.82566893 53.6403244 -105.25500884 37.96501985 -99.71875 24.90234375 C-99.34492187 24.01289062 -98.97109375 23.1234375 -98.5859375 22.20703125 C-90.75862892 5.25650207 -76.89487921 -5.63216065 -59.80078125 -12.22265625 C-38.65876369 -18.22495274 -17.23121805 -13.294776 0 0 Z " fill="#FBFCFD" transform="translate(140.71875,78.09765625)"/>
<path d="M0 0 C4.09874827 2.37686885 6.40507142 4.55991835 8.375 8.875 C8.045 9.865 7.715 10.855 7.375 11.875 C8.2 12.638125 9.025 13.40125 9.875 14.1875 C12.375 16.875 12.375 16.875 12.375 19.875 C9.0430588 18.69621508 6.02113059 17.16970554 2.94140625 15.45703125 C2.12736328 15.00779297 1.31332031 14.55855469 0.47460938 14.09570312 C-1.2188164 13.15578012 -2.90636813 12.2051964 -4.58789062 11.24414062 C-9.52417941 8.54316554 -9.52417941 8.54316554 -15.03515625 7.88671875 C-17.71181238 8.9081275 -19.02666637 9.50729899 -20.625 11.875 C-21.58556492 16.41821244 -21.02990369 20.08018905 -18.9375 24.1875 C-13.50661832 30.4990652 -6.49660341 33.74277888 0.80664062 37.45703125 C9.70602628 42.17202652 16.79591611 48.24989305 20.375 57.875 C22.93291358 66.44143542 21.02590324 74.57514818 18.375 82.875 C26.89028561 75.15594889 32.49895433 66.21221683 37.375 55.875 C37.705 55.875 38.035 55.875 38.375 55.875 C38.375 60.825 38.375 65.775 38.375 70.875 C37.715 70.875 37.055 70.875 36.375 70.875 C36.375 72.195 36.375 73.515 36.375 74.875 C37.35767859 76.08061184 37.35767859 76.08061184 39.22265625 75.97265625 C42.29882812 75.92382812 42.29882812 75.92382812 45.375 75.875 C41.84785012 80.46029484 38.34081077 83.67215478 33.5 86.8125 C32.84942627 87.23926025 32.19885254 87.66602051 31.52856445 88.10571289 C8.77265842 102.66675931 -17.204388 107.39433451 -43.66015625 101.84765625 C-58.91249139 98.29624569 -79.50870179 89.42708089 -88.625 75.875 C-87.79355469 75.81441406 -86.96210937 75.75382812 -86.10546875 75.69140625 C-85.01878906 75.60761719 -83.93210937 75.52382812 -82.8125 75.4375 C-81.73355469 75.35628906 -80.65460938 75.27507812 -79.54296875 75.19140625 C-76.56510095 74.97287539 -76.56510095 74.97287539 -73.625 73.875 C-73.625 73.215 -73.625 72.555 -73.625 71.875 C-74.615 71.545 -75.605 71.215 -76.625 70.875 C-76.625 69.885 -76.625 68.895 -76.625 67.875 C-78.11 68.37 -78.11 68.37 -79.625 68.875 C-80.615 65.575 -81.605 62.275 -82.625 58.875 C-81.965 58.215 -81.305 57.555 -80.625 56.875 C-80.2125 57.69742188 -79.8 58.51984375 -79.375 59.3671875 C-70.76889841 76.00308923 -60.41160957 86.1344147 -42.5625 92.625 C-31.28953929 95.7955202 -16.97621023 95.41827105 -6.625 89.875 C-2.97551763 87.42041475 -2.97551763 87.42041475 -0.625 83.875 C-0.16833438 80.54786476 -0.0037775 78.01311755 -1.6484375 75 C-8.07524569 66.76232321 -17.89139181 65.04900386 -27.625 62.875 C-25.10788893 65.48762645 -22.58767665 67.7235815 -19.625 69.8125 C-15.11582382 73.17755685 -12.02878214 75.61382003 -11 81.375 C-11.625 84.875 -11.625 84.875 -14.375 87.75 C-20.61951101 91.8329495 -27.33285853 91.48410829 -34.625 90.875 C-43.21858847 88.58947115 -50.79483593 82.43393458 -56.625 75.875 C-56.625 75.215 -56.625 74.555 -56.625 73.875 C-53.655 72.885 -53.655 72.885 -50.625 71.875 C-51.23988281 71.84921875 -51.85476562 71.8234375 -52.48828125 71.796875 C-59.08401639 71.33401639 -59.08401639 71.33401639 -61.6875 69.125 C-62.76436747 66.54051808 -62.85617163 64.64905951 -62.625 61.875 C-63.285 61.545 -63.945 61.215 -64.625 60.875 C-64.95887278 50.8588167 -64.39350228 41.33547001 -58.625 32.875 C-55.26224432 33.45652918 -52.53897026 34.90307939 -49.55126953 36.50292969 C-36.3149246 43.55494749 -22.41038286 47.41129235 -7.79516602 50.4753418 C6.56044091 53.54729042 6.56044091 53.54729042 11.375 58.875 C10.36238626 53.6853546 8.1061992 50.99529586 4.17578125 47.71875 C0.61610227 45.37541879 -3.11020149 43.72032483 -7 42 C-16.49216604 37.79086005 -24.53128839 32.17656032 -29.625 22.875 C-31.65158991 16.79523026 -31.70198969 10.0674433 -28.875 4.3125 C-21.38433453 -3.80238759 -9.9401548 -4.62194977 0 0 Z " fill="#2D4188" transform="translate(121.625,92.125)"/>
<path d="M0 0 C2.64 0 5.28 0 8 0 C8 2.64 8 5.28 8 8 C8.67546875 7.98839844 9.3509375 7.97679687 10.046875 7.96484375 C10.93890625 7.95582031 11.8309375 7.94679688 12.75 7.9375 C14.07257813 7.92009766 14.07257813 7.92009766 15.421875 7.90234375 C17.78259788 7.99176507 19.72504136 8.43126034 22 9 C22.33 8.67 22.66 8.34 23 8 C28.22178988 7.40077821 28.22178988 7.40077821 31 8 C33.1875 10.9375 33.1875 10.9375 35 14 C37.62766389 14.96219702 37.62766389 14.96219702 40 15 C39.34 16.32 38.68 17.64 38 19 C38.99 19.99 38.99 19.99 40 21 C39.01 22.485 39.01 22.485 38 24 C35.41910438 24.41416399 32.923935 24.43915839 30.3125 24.49609375 C27.81943115 24.75443135 27.81943115 24.75443135 26.6875 27.03515625 C26.460625 27.68355469 26.23375 28.33195312 26 29 C25.34 29 24.68 29 24 29 C23.34 27.68 22.68 26.36 22 25 C22.495 26.98 22.495 26.98 23 29 C24.98 29.33 26.96 29.66 29 30 C29 31.32 29 32.64 29 34 C24.60058672 34.43994133 22.43205555 34.25137777 18.5625 32 C15.61676321 28.55133254 15.61676321 28.55133254 15.5625 24.875 C16 21 16 21 17 18 C16.01 18 15.02 18 14 18 C14 18.66 14 19.32 14 20 C10.37 20 6.74 20 3 20 C3 21.32 3 22.64 3 24 C5.31 24.33 7.62 24.66 10 25 C10 25.99 10 26.98 10 28 C5.71 28 1.42 28 -3 28 C-3.33 28.66 -3.66 29.32 -4 30 C-4.99 30.33 -5.98 30.66 -7 31 C-7.99 31.495 -7.99 31.495 -9 32 C-10.43679032 32.04516433 -11.87551946 32.03864149 -13.3125 32 C-16.68901986 31.956432 -19.70939388 32.15081132 -23 33 C-23.33 34.98 -23.66 36.96 -24 39 C-26.10348074 39.19504458 -28.20782585 39.38078496 -30.3125 39.5625 C-31.48425781 39.66691406 -32.65601562 39.77132812 -33.86328125 39.87890625 C-37 40 -37 40 -40 39 C-40.06957368 36.00833155 -40.06617906 33.3088356 -39.4375 30.375 C-38.95964037 27.78090488 -39.35898812 26.51710843 -40 24 C-40.06926968 21.24029592 -40.0941736 18.50803958 -40.0625 15.75 C-40.05798828 15.00492188 -40.05347656 14.25984375 -40.04882812 13.4921875 C-40.03709246 11.6614236 -40.0191585 9.83070127 -40 8 C-35.71 8 -31.42 8 -27 8 C-27 8.99 -27 9.98 -27 11 C-26.01 10.67 -25.02 10.34 -24 10 C-24 9.34 -24 8.68 -24 8 C-21.36 8 -18.72 8 -16 8 C-16 6.02 -16 4.04 -16 2 C-15.34 2 -14.68 2 -14 2 C-14 2.99 -14 3.98 -14 5 C-10.35206816 6.27253436 -6.8063457 7.32829194 -3 8 C-0.54420303 4.31435916 -0.54420303 4.31435916 0 0 Z " fill="#2696CF" transform="translate(104,16)"/>
<path d="M0 0 C4.09874827 2.37686885 6.40507142 4.55991835 8.375 8.875 C8.045 9.865 7.715 10.855 7.375 11.875 C8.2 12.638125 9.025 13.40125 9.875 14.1875 C12.375 16.875 12.375 16.875 12.375 19.875 C9.0430588 18.69621508 6.02113059 17.16970554 2.94140625 15.45703125 C2.12736328 15.00779297 1.31332031 14.55855469 0.47460938 14.09570312 C-1.2188164 13.15578012 -2.90636813 12.2051964 -4.58789062 11.24414062 C-9.52417941 8.54316554 -9.52417941 8.54316554 -15.03515625 7.88671875 C-17.71181238 8.9081275 -19.02666637 9.50729899 -20.625 11.875 C-21.58556492 16.41821244 -21.02990369 20.08018905 -18.9375 24.1875 C-13.50661832 30.4990652 -6.49660341 33.74277888 0.80664062 37.45703125 C8.12101411 41.33226912 14.91597331 46.10379923 18.375 53.875 C17.715 53.875 17.055 53.875 16.375 53.875 C16.375 54.535 16.375 55.195 16.375 55.875 C15.385 56.205 14.395 56.535 13.375 56.875 C12.3540625 55.823125 12.3540625 55.823125 11.3125 54.75 C5.63618375 49.12813045 0.46986547 45.14338773 -6.9375 42.0625 C-16.44416253 37.84806834 -24.52692159 32.18453448 -29.625 22.875 C-31.65158991 16.79523026 -31.70198969 10.0674433 -28.875 4.3125 C-21.38433453 -3.80238759 -9.9401548 -4.62194977 0 0 Z " fill="#305696" transform="translate(121.625,92.125)"/>
<path d="M0 0 C2.45589629 3.1088234 4.38243468 6.35613016 6.3125 9.8125 C13.77802331 22.62831502 24.44660208 31.38573543 38.93676758 35.55761719 C45.12026452 37.08912488 51.21358809 37.42331385 57.5625 37.625 C58.57119141 37.66367188 59.57988281 37.70234375 60.61914062 37.7421875 C63.0792564 37.83546203 65.53938366 37.92125516 68 38 C67.01 38.99 67.01 38.99 66 40 C66.33 40.66 66.66 41.32 67 42 C66.505 42.99 66.505 42.99 66 44 C71.94 43.505 71.94 43.505 78 43 C78 43.66 78 44.32 78 45 C56.79845968 51.28193787 33.52868335 45.53338221 14.4375 35.75 C6.74351974 31.47764401 -2.01123049 26.41619092 -7 19 C-6.16855469 18.93941406 -5.33710937 18.87882812 -4.48046875 18.81640625 C-2.85044922 18.69072266 -2.85044922 18.69072266 -1.1875 18.5625 C-0.10855469 18.48128906 0.97039063 18.40007812 2.08203125 18.31640625 C5.05989905 18.09787539 5.05989905 18.09787539 8 17 C8 16.34 8 15.68 8 15 C7.01 14.67 6.02 14.34 5 14 C5 13.01 5 12.02 5 11 C4.01 11.33 3.02 11.66 2 12 C1.47026689 10.37787941 0.95146893 8.75218416 0.4375 7.125 C0.14746094 6.22007812 -0.14257812 5.31515625 -0.44140625 4.3828125 C-1 2 -1 2 0 0 Z " fill="#373981" transform="translate(40,149)"/>
<path d="M0 0 C4.29 0 8.58 0 13 0 C13 0.99 13 1.98 13 3 C13.99 2.67 14.98 2.34 16 2 C16 1.34 16 0.68 16 0 C18.475 0.495 18.475 0.495 21 1 C20.67 1.66 20.34 2.32 20 3 C19.960008 4.99960012 19.95653201 7.00047242 20 9 C22.64 10.32 25.28 11.64 28 13 C28 13.99 28 14.98 28 16 C25.69 16.33 23.38 16.66 21 17 C21 17.66 21 18.32 21 19 C22.4370809 19.05422947 23.87475462 19.09289723 25.3125 19.125 C26.11300781 19.14820312 26.91351563 19.17140625 27.73828125 19.1953125 C30.28388576 19.15817322 30.28388576 19.15817322 33 17 C33 17.66 33 18.32 33 19 C33.66 19 34.32 19 35 19 C35.66 16.69 36.32 14.38 37 12 C37.33 12 37.66 12 38 12 C38.1953125 18.0546875 38.1953125 18.0546875 38 20 C36 22 36 22 33 23 C32.01 23.495 32.01 23.495 31 24 C29.56320968 24.04516433 28.12448054 24.03864149 26.6875 24 C23.31098014 23.956432 20.29060612 24.15081132 17 25 C16.67 26.98 16.34 28.96 16 31 C13.89651926 31.19504458 11.79217415 31.38078496 9.6875 31.5625 C7.92986328 31.71912109 7.92986328 31.71912109 6.13671875 31.87890625 C3 32 3 32 0 31 C-0.06957368 28.00833155 -0.06617906 25.3088356 0.5625 22.375 C1.04035963 19.78090488 0.64101188 18.51710843 0 16 C-0.06926968 13.24029592 -0.0941736 10.50803958 -0.0625 7.75 C-0.05798828 7.00492188 -0.05347656 6.25984375 -0.04882812 5.4921875 C-0.03709246 3.6614236 -0.0191585 1.83070127 0 0 Z " fill="#2F8BC3" transform="translate(64,24)"/>
<path d="M0 0 C9.92024404 0.74869766 19.12725202 3.48606271 26 11 C28.51250583 14.76875875 28.53016086 16.53150134 28 21 C24.25485856 27.16136173 18.92551509 29.60607032 12.10986328 31.53491211 C-3.32752612 34.93785435 -17.56377243 30.24571434 -31 23 C-30.34 22.67 -29.68 22.34 -29 22 C-29.391875 21.2575 -29.78375 20.515 -30.1875 19.75 C-30.455625 18.8425 -30.72375 17.935 -31 17 C-29.625 14.6875 -29.625 14.6875 -28 13 C-27.5875 13.44730469 -27.175 13.89460937 -26.75 14.35546875 C-20.3181035 21.0888604 -13.37459213 26.39773792 -3.81640625 27.30078125 C2.56035801 27.32374679 7.42411486 27.22162252 13 24 C15.3071915 22.08546573 15.3071915 22.08546573 15.5 18.8125 C14.82634327 13.67586747 12.82316049 11.36747065 9 8 C6.63350244 6.32228791 4.24257105 4.75831424 1.7578125 3.26171875 C1.17773438 2.84535156 0.59765625 2.42898437 0 2 C0 1.34 0 0.68 0 0 Z " fill="#F5F6F9" transform="translate(94,155)"/>
<path d="M0 0 C0.63808594 0.08378906 1.27617188 0.16757812 1.93359375 0.25390625 C2.75988281 0.35574219 3.58617188 0.45757813 4.4375 0.5625 C5.26121094 0.66691406 6.08492187 0.77132813 6.93359375 0.87890625 C7.95646484 0.93884766 7.95646484 0.93884766 9 1 C9.33 0.67 9.66 0.34 10 0 C15.22178988 -0.59922179 15.22178988 -0.59922179 18 0 C20.1875 2.9375 20.1875 2.9375 22 6 C24.62766389 6.96219702 24.62766389 6.96219702 27 7 C26.34 8.32 25.68 9.64 25 11 C25.66 11.66 26.32 12.32 27 13 C26.34 13.99 25.68 14.98 25 16 C22.41910438 16.41416399 19.923935 16.43915839 17.3125 16.49609375 C14.81943115 16.75443135 14.81943115 16.75443135 13.6875 19.03515625 C13.460625 19.68355469 13.23375 20.33195312 13 21 C12.34 21 11.68 21 11 21 C10.34 19.68 9.68 18.36 9 17 C9.33 18.32 9.66 19.64 10 21 C11.98 21.33 13.96 21.66 16 22 C16 23.32 16 24.64 16 26 C11.60058672 26.43994133 9.43205555 26.25137777 5.5625 24 C2.61676321 20.55133254 2.61676321 20.55133254 2.5625 16.875 C3 13 3 13 4 10 C3.01 10 2.02 10 1 10 C1 10.66 1 11.32 1 12 C-0.32 12 -1.64 12 -3 12 C-3 10.68 -3 9.36 -3 8 C-4.98 8 -6.96 8 -9 8 C-9 6.68 -9 5.36 -9 4 C-6.36 4 -3.72 4 -1 4 C-0.67 2.68 -0.34 1.36 0 0 Z " fill="#3091C9" transform="translate(117,24)"/>
<path d="M0 0 C4.09874827 2.37686885 6.40507142 4.55991835 8.375 8.875 C8.045 9.865 7.715 10.855 7.375 11.875 C8.2 12.638125 9.025 13.40125 9.875 14.1875 C12.375 16.875 12.375 16.875 12.375 19.875 C9.0430588 18.69621508 6.02113059 17.16970554 2.94140625 15.45703125 C2.12736328 15.00779297 1.31332031 14.55855469 0.47460938 14.09570312 C-1.2188164 13.15578012 -2.90636813 12.2051964 -4.58789062 11.24414062 C-9.52417941 8.54316554 -9.52417941 8.54316554 -15.03515625 7.88671875 C-17.71512092 8.90939003 -19.0420143 9.48967908 -20.625 11.875 C-21.02403439 14.05433331 -21.02403439 14.05433331 -20.875 16.375 C-20.85953125 17.1484375 -20.8440625 17.921875 -20.828125 18.71875 C-20.68971705 21.0572807 -20.68971705 21.0572807 -19.625 23.875 C-20.615 23.875 -21.605 23.875 -22.625 23.875 C-22.68107422 22.77091797 -22.68107422 22.77091797 -22.73828125 21.64453125 C-23.15484473 14.27087342 -23.15484473 14.27087342 -26.625 7.875 C-28.57716435 9.82716435 -29.47326645 11.40699953 -30.625 13.875 C-31.13037432 8.56856959 -29.93155751 6.00819688 -26.625 1.875 C-19.58664092 -4.31022465 -8.1636093 -3.79589583 0 0 Z " fill="#3169A4" transform="translate(121.625,92.125)"/>
<path d="M0 0 C0.99 0 1.98 0 3 0 C2.94199219 0.74765625 2.88398437 1.4953125 2.82421875 2.265625 C2.37949421 8.38657938 2.37949421 8.38657938 5.0625 13.625 C8.41519622 15.19434717 11.32176116 15.71151068 15 16 C15 14.68 15 13.36 15 12 C13.576875 12.061875 13.576875 12.061875 12.125 12.125 C9 12 9 12 7 10 C6.875 6.875 6.875 6.875 7 4 C10 7.625 10 7.625 10 11 C11.423125 10.938125 11.423125 10.938125 12.875 10.875 C16 11 16 11 18 13 C18.4375 15.4375 18.4375 15.4375 18 18 C15.1809834 20.19256847 12.50042844 21.35177251 9 22 C9 21.34 9 20.68 9 20 C6.69 19.34 4.38 18.68 2 18 C2 16.35 2 14.7 2 13 C1.29488281 13.16371094 0.58976562 13.32742187 -0.13671875 13.49609375 C-3.09658688 14.01699824 -5.81061273 14.09866732 -8.8125 14.0625 C-9.78832031 14.05347656 -10.76414062 14.04445313 -11.76953125 14.03515625 C-12.50558594 14.02355469 -13.24164063 14.01195312 -14 14 C-14 13.01 -14 12.02 -14 11 C-10.7 10.67 -7.4 10.34 -4 10 C-4 9.01 -4 8.02 -4 7 C-6.31 6.67 -8.62 6.34 -11 6 C-11 4.68 -11 3.36 -11 2 C-7.37 2 -3.74 2 0 2 C0 1.34 0 0.68 0 0 Z " fill="#3289C1" transform="translate(118,34)"/>
<path d="M0 0 C-1.2065625 0.5878125 -1.2065625 0.5878125 -2.4375 1.1875 C-5.23863416 2.75222675 -5.23863416 2.75222675 -5.66015625 5.61328125 C-5.77230469 6.40089844 -5.88445312 7.18851563 -6 8 C-6.74765625 7.98839844 -7.4953125 7.97679687 -8.265625 7.96484375 C-9.25046875 7.95582031 -10.2353125 7.94679688 -11.25 7.9375 C-12.22453125 7.92589844 -13.1990625 7.91429687 -14.203125 7.90234375 C-16.65758678 7.98804423 -18.66168914 8.29293934 -21 9 C-21 9.928125 -21 10.85625 -21 11.8125 C-22 15 -22 15 -23.70703125 15.92578125 C-25.13272727 16.39924987 -26.56549815 16.85183902 -28.00390625 17.28515625 C-30.69273098 18.24808174 -32.10913479 19.90654209 -34 22 C-37.5426036 24.4431749 -40.79021855 24.16191467 -45 24 C-41.47263524 19.41442581 -37.96551608 16.20366572 -33.125 13.0625 C-32.15348999 12.42344727 -32.15348999 12.42344727 -31.16235352 11.77148438 C-8.00311169 -3.07811988 -8.00311169 -3.07811988 0 0 Z " fill="#2396D2" transform="translate(78,8)"/>
<path d="M0 0 C2.02408755 0.09002398 4.04544287 0.24641038 6.0625 0.4375 C7.71958984 0.59025391 7.71958984 0.59025391 9.41015625 0.74609375 C10.26480469 0.82988281 11.11945313 0.91367187 12 1 C12 2.32 12 3.64 12 5 C9.36 5 6.72 5 4 5 C4 6.32 4 7.64 4 9 C5.98 9 7.96 9 10 9 C10 10.32 10 11.64 10 13 C7.69 13 5.38 13 3 13 C3 14.32 3 15.64 3 17 C5.31 17.33 7.62 17.66 10 18 C10 18.99 10 19.98 10 21 C6.04 21 2.08 21 -2 21 C-2.1098113 14.30151095 -1.96073701 7.64213241 -1 1 C-0.67 0.67 -0.34 0.34 0 0 Z " fill="#F5FAFA" transform="translate(104,23)"/>
<path d="M0 0 C2.47029294 3.12903772 4.42234926 6.40263918 6.375 9.875 C8.93769294 14.32570663 11.53473149 18.21970708 15 22 C14.34 22.99 13.68 23.98 13 25 C8.125 24.125 8.125 24.125 7 23 C7.165 23.928125 7.33 24.85625 7.5 25.8125 C8 29 8 29 8 32 C6.05710718 30.59027312 4.12085734 29.17270125 2.1875 27.75 C1.64029297 27.35425781 1.09308594 26.95851562 0.52929688 26.55078125 C-2.5078419 24.30513925 -4.92793756 22.16989201 -7 19 C-6.16855469 18.93941406 -5.33710937 18.87882812 -4.48046875 18.81640625 C-2.85044922 18.69072266 -2.85044922 18.69072266 -1.1875 18.5625 C-0.10855469 18.48128906 0.97039063 18.40007812 2.08203125 18.31640625 C5.05989905 18.09787539 5.05989905 18.09787539 8 17 C8 16.34 8 15.68 8 15 C7.01 14.67 6.02 14.34 5 14 C5 13.01 5 12.02 5 11 C4.01 11.33 3.02 11.66 2 12 C1.47026689 10.37787941 0.95146893 8.75218416 0.4375 7.125 C0.14746094 6.22007812 -0.14257812 5.31515625 -0.44140625 4.3828125 C-1 2 -1 2 0 0 Z " fill="#2F3C85" transform="translate(40,149)"/>
<path d="M0 0 C3.22466078 4.20607928 4.12460635 6.28385359 4.0625 11.625 C4.05347656 12.62789062 4.04445313 13.63078125 4.03515625 14.6640625 C4.02355469 15.43492188 4.01195313 16.20578125 4 17 C4.60328125 17.10183594 5.2065625 17.20367187 5.828125 17.30859375 C9.40972528 18.44877945 10.75466659 21.06859249 13 24 C12.01 24.33 11.02 24.66 10 25 C8 24 8 24 7 23 C7.66 24.98 8.32 26.96 9 29 C-2.3584523 19.71542242 -2.3584523 19.71542242 -4 13 C-4 4.16372796 -4 4.16372796 -1.44921875 1.1953125 C-0.97097656 0.80085938 -0.49273437 0.40640625 0 0 Z " fill="#2F5F9E" transform="translate(95,99)"/>
<path d="M0 0 C0 1.32 0 2.64 0 4 C-1.98 4.33 -3.96 4.66 -6 5 C-6 5.99 -6 6.98 -6 8 C-4.741875 7.938125 -3.48375 7.87625 -2.1875 7.8125 C1.72007596 7.81940384 1.72007596 7.81940384 3.9375 9.25 C5.19438465 11.32016295 5.85656634 12.56162783 6 15 C5.125 17.6875 5.125 17.6875 3 20 C0.00667622 20.73111271 -2.92555738 20.9291009 -6 21 C-6 19.68 -6 18.36 -6 17 C-4.02 16.67 -2.04 16.34 0 16 C0 15.34 0 14.68 0 14 C-0.62648438 13.89042969 -1.25296875 13.78085937 -1.8984375 13.66796875 C-2.71570313 13.50941406 -3.53296875 13.35085937 -4.375 13.1875 C-5.59316406 12.96126953 -5.59316406 12.96126953 -6.8359375 12.73046875 C-9 12 -9 12 -11 9 C-10.9375 6 -10.9375 6 -10 3 C-6.70636647 0.25530539 -4.23535988 -0.36303085 0 0 Z " fill="#EAF6F9" transform="translate(75,28)"/>
<path d="M0 0 C2.8624741 0.62651427 5.28081653 1.52170517 7.890625 2.84765625 C8.95410156 3.38422852 8.95410156 3.38422852 10.0390625 3.93164062 C10.76867187 4.30482422 11.49828125 4.67800781 12.25 5.0625 C12.99507812 5.43955078 13.74015625 5.81660156 14.5078125 6.20507812 C16.34037531 7.13310673 18.17043676 8.06607179 20 9 C20 9.66 20 10.32 20 11 C18.54176788 11.0270043 17.08339325 11.04639787 15.625 11.0625 C14.81289062 11.07410156 14.00078125 11.08570313 13.1640625 11.09765625 C11 11 11 11 9 10 C8.67 9.01 8.34 8.02 8 7 C5.98491642 6.26676204 5.98491642 6.26676204 4 6 C2.02 8.97 2.02 8.97 0 12 C0.33 12.33 0.66 12.66 1 13 C0.75 14.9375 0.75 14.9375 0 17 C-0.99 17.66 -1.98 18.32 -3 19 C-3.78988145 20.95385067 -3.78988145 20.95385067 -4.1875 23.125 C-4.455625 24.40375 -4.72375 25.6825 -5 27 C-4.01 27.33 -3.02 27.66 -2 28 C-3.32 28 -4.64 28 -6 28 C-6.33387278 17.9838167 -5.76850228 8.46047001 0 0 Z " fill="#335695" transform="translate(63,125)"/>
<path d="M0 0 C4.31612591 0.43161259 6.37088082 1.73763869 9.75 4.375 C9.42 5.365 9.09 6.355 8.75 7.375 C5.72580475 6.78696203 2.73241547 6.14821882 -0.25 5.375 C-2.60448165 7.92568845 -3.23327924 9.08517358 -3.4375 12.625 C-3.375625 13.5325 -3.31375 14.44 -3.25 15.375 C-0.94 16.035 1.37 16.695 3.75 17.375 C3.75 18.695 3.75 20.015 3.75 21.375 C-0.64941328 21.81494133 -2.81794445 21.62637777 -6.6875 19.375 C-9.39049832 16.21051416 -10.03323356 14.53013888 -9.71875 10.37109375 C-8.51182206 5.23159226 -5.2909126 0.61048992 0 0 Z " fill="#E8F5F9" transform="translate(129.25,28.625)"/>
<path d="M0 0 C0 1.32 0 2.64 0 4 C-1.98 4 -3.96 4 -6 4 C-6 4.99 -6 5.98 -6 7 C-4.88625 7.268125 -3.7725 7.53625 -2.625 7.8125 C1 9 1 9 3 12 C3.35263504 14.8210803 3.49988769 16.32976842 1.7734375 18.64453125 C-0.52168172 20.39873031 -1.83463896 20.31153744 -4.6875 20.1875 C-5.49574219 20.16042969 -6.30398437 20.13335937 -7.13671875 20.10546875 C-7.75160156 20.07066406 -8.36648437 20.03585938 -9 20 C-9 18.68 -9 17.36 -9 16 C-6.69 16 -4.38 16 -2 16 C-2 15.01 -2 14.02 -2 13 C-3.11375 12.8453125 -3.11375 12.8453125 -4.25 12.6875 C-7.30108241 11.9247294 -8.85403077 11.30492991 -11 9 C-11.45535315 5.87757843 -11.49686954 3.93163039 -10 1.125 C-6.74686316 -0.70488947 -3.68609891 -0.18128355 0 0 Z " fill="#E8F5F9" transform="translate(94,24)"/>
<path d="M0 0 C0.7734375 0.7115625 0.7734375 0.7115625 1.5625 1.4375 C4.66782675 3.42809407 7.36632504 3.65060818 11 4 C11 5.32 11 6.64 11 8 C9.02 8 7.04 8 5 8 C5 9.65 5 11.3 5 13 C6.8871875 13.061875 6.8871875 13.061875 8.8125 13.125 C9.52019531 13.14820313 10.22789063 13.17140625 10.95703125 13.1953125 C13.31359719 13.13254462 13.31359719 13.13254462 16 11 C16 13.31 16 15.62 16 18 C13.89651926 18.19504458 11.79217415 18.38078496 9.6875 18.5625 C7.92986328 18.71912109 7.92986328 18.71912109 6.13671875 18.87890625 C3 19 3 19 0 18 C-0.06809535 15.07189994 -0.09817457 12.42542314 0.5625 9.5625 C1.1344507 6.21250306 0.58683564 3.32540197 0 0 Z " fill="#2B83BF" transform="translate(64,37)"/>
<path d="M0 0 C6.02752105 1.72214887 11.52407003 4.09785064 17.125 6.875 C17.79337891 7.20242187 18.46175781 7.52984375 19.15039062 7.8671875 C23.76880989 10.19687288 27.85249379 12.90822264 32 16 C31.67 16.99 31.34 17.98 31 19 C29.35 18.67 27.7 18.34 26 18 C25.67 18.66 25.34 19.32 25 20 C24.67 17.69 24.34 15.38 24 13 C23.01 14.485 23.01 14.485 22 16 C18.875 17.1875 18.875 17.1875 16 18 C16.33 15.03 16.66 12.06 17 9 C15.27111445 8.83044205 13.54187557 8.66448486 11.8125 8.5 C10.84957031 8.4071875 9.88664063 8.314375 8.89453125 8.21875 C6.24812333 8.01875156 3.65239135 7.96120817 1 8 C0.67 5.36 0.34 2.72 0 0 Z " fill="#2D99D0" transform="translate(127,8)"/>
<path d="M0 0 C0.99 0.33 1.98 0.66 3 1 C2.91796875 2.70703125 2.91796875 2.70703125 2 5 C-0.20986445 6.74154881 -2.31058396 8.21676805 -4.6875 9.6875 C-5.30044922 10.09033203 -5.91339844 10.49316406 -6.54492188 10.90820312 C-10.34480517 13.31385565 -13.43048986 14.58586621 -18 15 C-19.07763474 10.50985524 -19.37757467 8.66989054 -17.0625 4.5625 C-16.381875 3.716875 -15.70125 2.87125 -15 2 C-12.66046261 2.5198972 -10.64217968 3.15709185 -8.4375 4.125 C-5.91342919 5.31456447 -5.91342919 5.31456447 -3 4 C-2.67 3.01 -2.34 2.02 -2 1 C-1.34 0.67 -0.68 0.34 0 0 Z " fill="#303880" transform="translate(157,171)"/>
<path d="M0 0 C0.33 0.66 0.66 1.32 1 2 C2.32 2.33 3.64 2.66 5 3 C5 10.59 5 18.18 5 26 C3.35 26.33 1.7 26.66 0 27 C-0.33 27.66 -0.66 28.32 -1 29 C-1.66 29 -2.32 29 -3 29 C-2.86722656 28.16339844 -2.73445312 27.32679688 -2.59765625 26.46484375 C-1.25804423 17.63513827 -0.47448095 8.9152473 0 0 Z " fill="#295497" transform="translate(163,118)"/>
<path d="M0 0 C6.54865086 4.79169575 11.82660984 11.4832324 15 19 C14.625 21.25 14.625 21.25 14 23 C12.02 22.67 10.04 22.34 8 22 C8 20.02 8 18.04 8 16 C6.35 15.67 4.7 15.34 3 15 C3.66 14.01 4.32 13.02 5 12 C3.35 12 1.7 12 0 12 C0 8.04 0 4.08 0 0 Z " fill="#338AC3" transform="translate(168,33)"/>
<path d="M0 0 C1.04702186 3.7264085 1.07442057 7.13013042 1 11 C-2 10 -2 10 -3 9 C-3.33 9.66 -3.66 10.32 -4 11 C-4.66 11 -5.32 11 -6 11 C-5.01 12.32 -4.02 13.64 -3 15 C-3.99 15.33 -4.98 15.66 -6 16 C-6.226875 16.969375 -6.45375 17.93875 -6.6875 18.9375 C-8 22 -8 22 -9.90234375 22.83984375 C-11.91387327 23.32416632 -13.9573842 23.67054584 -16 24 C-13.76889773 14.57979042 -6.39132116 6.9546899 0 0 Z " fill="#2C84C0" transform="translate(31,33)"/>
<path d="M0 0 C4.29 0 8.58 0 13 0 C13 0.99 13 1.98 13 3 C13.639375 2.814375 14.27875 2.62875 14.9375 2.4375 C15.618125 2.293125 16.29875 2.14875 17 2 C18 3 18 3 18.1875 5.875 C18 9 18 9 16 12 C12.7 11.67 9.4 11.34 6 11 C6.99 10.67 7.98 10.34 9 10 C9 9.34 9 8.68 9 8 C9.66 8 10.32 8 11 8 C11 6.68 11 5.36 11 4 C6.05 5.485 6.05 5.485 1 7 C0.67 6.67 0.34 6.34 0 6 C0 4.02 0 2.04 0 0 Z " fill="#2591CC" transform="translate(64,24)"/>
<path d="M0 0 C0.99 0.33 1.98 0.66 3 1 C2 3 1 5 0 7 C0.99 7 1.98 7 3 7 C3.66 6.34 4.32 5.68 5 5 C5.66 6.32 6.32 7.64 7 9 C6.175 9.474375 5.35 9.94875 4.5 10.4375 C1.70782829 13.299476 1.63732967 13.77729233 1.625 17.5625 C1.74782637 20.36388595 2.10183246 22.30549738 3 25 C2.01 25 1.02 25 0 25 C-0.05607422 23.89591797 -0.05607422 23.89591797 -0.11328125 22.76953125 C-0.52984473 15.39587342 -0.52984473 15.39587342 -4 9 C-5.95216435 10.95216435 -6.84826645 12.53199953 -8 15 C-8.50537432 9.69356959 -7.30655751 7.13319688 -4 3 C-1.9375 1.0625 -1.9375 1.0625 0 0 Z " fill="#3C6FA9" transform="translate(99,91)"/>
<path d="M0 0 C0.495 0.99 0.495 0.99 1 2 C-3.75 2.125 -3.75 2.125 -6 1 C-7.5044015 1.08968547 -9.00515482 1.24591383 -10.5 1.4375 C-17.43019697 2.205306 -24.13701564 2.28126946 -31.0625 1.4375 C-32.361875 1.293125 -33.66125 1.14875 -35 1 C-35.33 1.33 -35.66 1.66 -36 2 C-37.66617115 2.04063832 -39.33388095 2.042721 -41 2 C-41.33 1.34 -41.66 0.68 -42 0 C-29.18713394 -2.30713987 -12.54549281 -4.80465682 0 0 Z " fill="#3AAADC" transform="translate(120,6)"/>
<path d="M0 0 C0.33 0 0.66 0 1 0 C1 4.95 1 9.9 1 15 C0.34 15 -0.32 15 -1 15 C-1.2475 15.61875 -1.495 16.2375 -1.75 16.875 C-3.24391702 19.41465893 -4.21539622 20.09909878 -7 21 C-9.25 20.625 -9.25 20.625 -11 20 C-10.484375 19.113125 -9.96875 18.22625 -9.4375 17.3125 C-6.17255792 11.60769146 -3.10197121 5.79441251 0 0 Z " fill="#314488" transform="translate(159,148)"/>
<path d="M0 0 C2.64 0 5.28 0 8 0 C5.61763119 5.52276405 2.58160239 10.1266042 -1.0625 14.875 C-1.49804199 15.44629639 -1.93358398 16.01759277 -2.38232422 16.60620117 C-4.45352309 19.25792139 -6.17501407 21.11667604 -9 23 C-9 19.7 -9 16.4 -9 13 C-6.23735711 12.40267181 -3.83967231 12 -1 12 C-0.7834375 11.1028125 -0.7834375 11.1028125 -0.5625 10.1875 C-0.1127561 8.43849596 0.42892341 6.71322977 1 5 C0.60602665 2.36195411 0.60602665 2.36195411 0 0 Z " fill="#33498A" transform="translate(177,144)"/>
<path d="M0 0 C0.99 0.33 1.98 0.66 3 1 C4.66621616 1.03874921 6.33394172 1.0450286 8 1 C8 1.99 8 2.98 8 4 C7.01 4.495 7.01 4.495 6 5 C6.33 5.66 6.66 6.32 7 7 C6.67 7.66 6.34 8.32 6 9 C6.99 9 7.98 9 9 9 C9.33 9.99 9.66 10.98 10 12 C12.42383077 13.16953416 12.42383077 13.16953416 15 14 C15.66 14.33 16.32 14.66 17 15 C17 17.97 17 20.94 17 24 C12.16175776 20.3235026 8.96620512 16.52825284 5.6875 11.4375 C5.24599609 10.77814453 4.80449219 10.11878906 4.34960938 9.43945312 C2.27898177 6.28436205 0.775865 3.7320283 0 0 Z " fill="#364C8A" transform="translate(15,143)"/>
<path d="M0 0 C-1.2065625 0.5878125 -1.2065625 0.5878125 -2.4375 1.1875 C-5.23863416 2.75222675 -5.23863416 2.75222675 -5.66015625 5.61328125 C-5.82837891 6.79470703 -5.82837891 6.79470703 -6 8 C-6.74765625 7.98839844 -7.4953125 7.97679687 -8.265625 7.96484375 C-9.25046875 7.95582031 -10.2353125 7.94679688 -11.25 7.9375 C-12.22453125 7.92589844 -13.1990625 7.91429687 -14.203125 7.90234375 C-16.65758678 7.98804423 -18.66168914 8.29293934 -21 9 C-21.33 10.98 -21.66 12.96 -22 15 C-22.99 14.67 -23.98 14.34 -25 14 C-24.34 14 -23.68 14 -23 14 C-23.75150023 10.72226496 -23.75150023 10.72226496 -27 9 C-24.29363164 7.70407751 -21.5850566 6.41316835 -18.875 5.125 C-18.11445312 4.76019531 -17.35390625 4.39539063 -16.5703125 4.01953125 C-4.46820101 -1.71853885 -4.46820101 -1.71853885 0 0 Z " fill="#2F9DD4" transform="translate(78,8)"/>
<path d="M0 0 C10.395 0.99 10.395 0.99 21 2 C21 2.33 21 2.66 21 3 C18.03 3 15.06 3 12 3 C12 3.66 12 4.32 12 5 C10.68 5 9.36 5 8 5 C8 5.66 8 6.32 8 7 C7.34 7 6.68 7 6 7 C6 7.66 6 8.32 6 9 C6.66 9.33 7.32 9.66 8 10 C6.35333797 9.8864371 4.70763918 9.75882619 3.0625 9.625 C2.14597656 9.55539063 1.22945313 9.48578125 0.28515625 9.4140625 C-0.84599609 9.20910156 -0.84599609 9.20910156 -2 9 C-2.33 8.34 -2.66 7.68 -3 7 C-1.35 6.34 0.3 5.68 2 5 C1.34 3.35 0.68 1.7 0 0 Z " fill="#3D3E83" transform="translate(80,185)"/>
<path d="M0 0 C1.65 0.33 3.3 0.66 5 1 C4.67 1.66 4.34 2.32 4 3 C3.54920374 7.26446708 3.54920374 7.26446708 5.5 10.875 C5.995 11.24625 6.49 11.6175 7 12 C6.34 12 5.68 12 5 12 C3.47700477 14.93720508 2.19899698 17.9168649 1 21 C0.10869587 18.3260876 -0.47731534 15.76276177 -1 13 C-4.3 12.67 -7.6 12.34 -11 12 C-11 11.01 -11 10.02 -11 9 C-9.68 8.67 -8.36 8.34 -7 8 C-7 8.66 -7 9.32 -7 10 C-4.69 10.66 -2.38 11.32 0 12 C0.19573608 10.56359829 0.38127816 9.12580496 0.5625 7.6875 C0.71912109 6.48673828 0.71912109 6.48673828 0.87890625 5.26171875 C1.14755178 2.83182884 1.14755178 2.83182884 0 0 Z " fill="#3E96C9" transform="translate(80,24)"/>
<path d="M0 0 C0.33 0.66 0.66 1.32 1 2 C0.67 2.99 0.34 3.98 0 5 C-3.50095311 6.16698437 -6.3122232 6.13268287 -10 6.125 C-11.2375 6.12757813 -12.475 6.13015625 -13.75 6.1328125 C-17 6 -17 6 -20 5 C-20 4.01 -20 3.02 -20 2 C-18.72382812 1.93941406 -17.44765625 1.87882813 -16.1328125 1.81640625 C-14.46352984 1.73200432 -12.79425963 1.64735614 -11.125 1.5625 C-10.28324219 1.52318359 -9.44148438 1.48386719 -8.57421875 1.44335938 C-7.76855469 1.40146484 -6.96289062 1.35957031 -6.1328125 1.31640625 C-5.01737061 1.26141968 -5.01737061 1.26141968 -3.87939453 1.20532227 C-1.91135688 1.10044135 -1.91135688 1.10044135 0 0 Z " fill="#FAFBF9" transform="translate(107,181)"/>
<path d="M0 0 C0.99 0.33 1.98 0.66 3 1 C3 1.66 3 2.32 3 3 C4.65 2.34 6.3 1.68 8 1 C7.67 2.65 7.34 4.3 7 6 C8.32 6.33 9.64 6.66 11 7 C10.34 8.32 9.68 9.64 9 11 C7.02 11 5.04 11 3 11 C-1.06153846 4.6 -1.06153846 4.6 -0.75 1.5625 C-0.5025 1.046875 -0.255 0.53125 0 0 Z " fill="#2B3680" transform="translate(47,171)"/>
<path d="M0 0 C3.54594966 3.54594966 3.05849472 8.63249384 3.125 13.4375 C3.08116737 17.68926529 2.611697 21.79458312 2 26 C1.34 26 0.68 26 0 26 C-0.82273212 23.11798655 -1.12834581 20.55223548 -1.1328125 17.55859375 C-1.13410156 16.72779297 -1.13539062 15.89699219 -1.13671875 15.04101562 C-1.13285156 14.18185547 -1.12898437 13.32269531 -1.125 12.4375 C-1.12886719 11.57447266 -1.13273438 10.71144531 -1.13671875 9.82226562 C-1.13542969 8.99275391 -1.13414063 8.16324219 -1.1328125 7.30859375 C-1.13168457 6.55376709 -1.13055664 5.79894043 -1.12939453 5.02124023 C-1 3 -1 3 0 0 Z " fill="#3E74AA" transform="translate(5,87)"/>
<path d="M0 0 C0.86625 0.2784375 0.86625 0.2784375 1.75 0.5625 C4.20692525 1.04023546 5.64397534 0.75729364 8 0 C9.08209949 3.24629847 8.78140875 3.87436498 8 7 C8.33 7.99 8.66 8.98 9 10 C8.5625 12.6875 8.5625 12.6875 8 15 C5.84821844 12.23612808 4.01629579 9.43466931 2.3125 6.375 C1.87550781 5.59898438 1.43851563 4.82296875 0.98828125 4.0234375 C0 2 0 2 0 0 Z " fill="#2D6AA5" transform="translate(151,88)"/>
<path d="M0 0 C1.29132785 3.87398355 0.41113572 6.81988786 -0.4375 10.6875 C-0.58509766 11.38939453 -0.73269531 12.09128906 -0.88476562 12.81445312 C-1.2495932 14.54444194 -1.62388689 16.27242963 -2 18 C-2.33 18 -2.66 18 -3 18 C-3.144375 16.906875 -3.28875 15.81375 -3.4375 14.6875 C-3.88288104 11.06877013 -3.88288104 11.06877013 -5 8 C-5.66 8 -6.32 8 -7 8 C-6.125 3.25 -6.125 3.25 -5 1 C-2.4375 0.375 -2.4375 0.375 0 0 Z " fill="#2D5E9D" transform="translate(39,105)"/>
<path d="M0 0 C1.72880982 -0.05449838 3.45812712 -0.09301688 5.1875 -0.125 C6.15042969 -0.14820312 7.11335938 -0.17140625 8.10546875 -0.1953125 C11.12812778 0.0086456 13.26769985 0.73125368 16 2 C16 2.66 16 3.32 16 4 C17.32 4 18.64 4 20 4 C20 5.32 20 6.64 20 8 C19.01 8 18.02 8 17 8 C16.67 8.66 16.34 9.32 16 10 C15.34 9.01 14.68 8.02 14 7 C14.33 6.34 14.66 5.68 15 5 C14.34 5 13.68 5 13 5 C13 4.34 13 3.68 13 3 C8.71 2.67 4.42 2.34 0 2 C0 1.34 0 0.68 0 0 Z " fill="#2668AB" transform="translate(104,91)"/>
<path d="M0 0 C0.33 0 0.66 0 1 0 C1.309375 0.94875 1.61875 1.8975 1.9375 2.875 C3.36109119 7.23987264 3.36109119 7.23987264 7 10 C3.7 11.32 0.4 12.64 -3 14 C-3 12.68 -3 11.36 -3 10 C-5.31 10.33 -7.62 10.66 -10 11 C-9.443125 10.7525 -8.88625 10.505 -8.3125 10.25 C-5.52479349 8.74313162 -3.30653497 7.1818574 -1 5 C-0.12056596 2.36539052 -0.12056596 2.36539052 0 0 Z " fill="#F6F6F9" transform="translate(110,172)"/>
<path d="M0 0 C4 2 4 2 4.828125 4.390625 C4.96734375 5.33421875 5.1065625 6.2778125 5.25 7.25 C5.39695312 8.23097656 5.54390625 9.21195313 5.6953125 10.22265625 C6.01878577 13.17123956 6.16020662 16.03617745 6 19 C4.68 19.33 3.36 19.66 2 20 C2 19.01 2 18.02 2 17 C1.34 16.34 0.68 15.68 0 15 C1.32 15 2.64 15 4 15 C3.67 12.69 3.34 10.38 3 8 C2.01 8.33 1.02 8.66 0 9 C0 6.03 0 3.06 0 0 Z " fill="#315493" transform="translate(33,128)"/>
<path d="M0 0 C0.66 0 1.32 0 2 0 C2.1953125 6.0546875 2.1953125 6.0546875 2 8 C1.34 8.66 0.68 9.32 0 10 C-0.75776264 11.68698982 -1.46111782 13.39890633 -2.125 15.125 C-2.47820312 16.03507812 -2.83140625 16.94515625 -3.1953125 17.8828125 C-3.46085938 18.58148438 -3.72640625 19.28015625 -4 20 C-5.47083876 16.07118237 -4.57110454 12.88681585 -3.6875 8.875 C-3.42324219 7.63492188 -3.15898437 6.39484375 -2.88671875 5.1171875 C-2 2 -2 2 0 0 Z " fill="#FCFCFA" transform="translate(198,104)"/>
<path d="M0 0 C2.64 0.33 5.28 0.66 8 1 C8 1.66 8 2.32 8 3 C8.99 3.66 9.98 4.32 11 5 C11 5.66 11 6.32 11 7 C9.741875 7.020625 8.48375 7.04125 7.1875 7.0625 C6.47980469 7.07410156 5.77210937 7.08570313 5.04296875 7.09765625 C3 7 3 7 0 6 C-0.75 4.0625 -0.75 4.0625 -1 2 C-0.67 1.34 -0.34 0.68 0 0 Z " fill="#2B337F" transform="translate(88,176)"/>
<path d="M0 0 C0.99 0 1.98 0 3 0 C2.87431641 0.90492187 2.87431641 0.90492187 2.74609375 1.828125 C2.64425781 2.62734375 2.54242187 3.4265625 2.4375 4.25 C2.33308594 5.03890625 2.22867187 5.8278125 2.12109375 6.640625 C1.99972651 9.00532874 2.30366743 10.7511037 3 13 C2.34 13 1.68 13 1 13 C1 12.34 1 11.68 1 11 C0.34 11 -0.32 11 -1 11 C-1.28875 11.639375 -1.5775 12.27875 -1.875 12.9375 C-3 15 -3 15 -5 16 C-4.49228528 10.03435204 -2.61407872 5.36190101 0 0 Z " fill="#297CBB" transform="translate(13,59)"/>
<path d="M0 0 C1.17571451 3.67410785 1.07366746 7.16929183 1 11 C-2 10 -2 10 -3 9 C-3.33 9.66 -3.66 10.32 -4 11 C-4.66 11 -5.32 11 -6 11 C-6 11.66 -6 12.32 -6 13 C-7.32 12.67 -8.64 12.34 -10 12 C-8.70984254 10.37380152 -7.41782303 8.74908017 -6.125 7.125 C-5.04605469 5.76761719 -5.04605469 5.76761719 -3.9453125 4.3828125 C-2 2 -2 2 0 0 Z " fill="#3991C7" transform="translate(31,33)"/>
<path d="M0 0 C8.415 1.98 8.415 1.98 17 4 C17 4.66 17 5.32 17 6 C17.66 6.33 18.32 6.66 19 7 C18.38511719 6.9278125 17.77023438 6.855625 17.13671875 6.78125 C16.32847656 6.6884375 15.52023438 6.595625 14.6875 6.5 C13.88699219 6.4071875 13.08648437 6.314375 12.26171875 6.21875 C9.88103445 5.95186537 9.88103445 5.95186537 7 6 C6.34 5.67 5.68 5.34 5 5 C2.4934146 4.27228166 0.64773993 4 -2 4 C-1.34 2.68 -0.68 1.36 0 0 Z " fill="#2C4F8F" transform="translate(90,137)"/>
<path d="M0 0 C0.33 0.99 0.66 1.98 1 3 C3.50447516 4.21869929 3.50447516 4.21869929 6 5 C5.01 6.485 5.01 6.485 4 8 C5.32 8.33 6.64 8.66 8 9 C7.67 12.3 7.34 15.6 7 19 C4.44625103 15.59500137 3.20693538 13.38945961 1.8125 9.5 C1.46832031 8.5615625 1.12414062 7.623125 0.76953125 6.65625 C0 4 0 4 0 0 Z " fill="#305999" transform="translate(8,124)"/>
<path d="M0 0 C3.96 0.33 7.92 0.66 12 1 C12 2.32 12 3.64 12 5 C9.36 5 6.72 5 4 5 C3.67 6.32 3.34 7.64 3 9 C3 7.02 3 5.04 3 3 C2.01 3 1.02 3 0 3 C-0.33 3.66 -0.66 4.32 -1 5 C-0.67 3.35 -0.34 1.7 0 0 Z " fill="#DFF0F7" transform="translate(104,23)"/>
<path d="M0 0 C2.51412609 3.19071048 4.54217773 6.54111756 6.5625 10.0625 C8.31103664 13.10457773 10.05332076 16.07998113 12 19 C10.68 19.33 9.36 19.66 8 20 C7.67 19.01 7.34 18.02 7 17 C7.33 16.34 7.66 15.68 8 15 C7.01 14.67 6.02 14.34 5 14 C5 13.01 5 12.02 5 11 C4.01 11.33 3.02 11.66 2 12 C1.47026689 10.37787941 0.95146893 8.75218416 0.4375 7.125 C0.14746094 6.22007812 -0.14257812 5.31515625 -0.44140625 4.3828125 C-1 2 -1 2 0 0 Z " fill="#394A8A" transform="translate(40,149)"/>
<path d="M0 0 C1.65 0 3.3 0 5 0 C4.63495936 5.66442374 3.9445679 10.00703705 1 15 C0.67 15 0.34 15 0 15 C-0.84888195 9.62374766 -1.0024305 5.34629602 0 0 Z " fill="#2E5392" transform="translate(185,128)"/>
<path d="M0 0 C2.15473199 1.5801368 4.10646634 3.10646634 6 5 C6 5.99 6 6.98 6 8 C5.071875 8.12375 5.071875 8.12375 4.125 8.25 C1.81418662 8.80115872 1.81418662 8.80115872 0.8671875 11.046875 C0.58101562 11.69140625 0.29484375 12.3359375 0 13 C-0.38885039 11.21128822 -0.76069196 9.41887126 -1.125 7.625 C-1.33382812 6.62726563 -1.54265625 5.62953125 -1.7578125 4.6015625 C-1.83773437 3.74304688 -1.91765625 2.88453125 -2 2 C-1.34 1.34 -0.68 0.68 0 0 Z " fill="#32619F" transform="translate(162,104)"/>
<path d="M0 0 C2.13604308 3.20406462 2.24208908 3.99600747 2.1953125 7.66796875 C2.18886719 8.56064453 2.18242187 9.45332031 2.17578125 10.37304688 C2.15902344 11.30181641 2.14226562 12.23058594 2.125 13.1875 C2.11597656 14.12787109 2.10695312 15.06824219 2.09765625 16.03710938 C2.07409056 18.35832968 2.04119116 20.67903644 2 23 C1.67 23 1.34 23 1 23 C1 21.02 1 19.04 1 17 C0.34 17 -0.32 17 -1 17 C-1.33 13.37 -1.66 9.74 -2 6 C-1.67 6 -1.34 6 -1 6 C-0.67 4.02 -0.34 2.04 0 0 Z " fill="#4C7CAE" transform="translate(194,87)"/>
<path d="M0 0 C2.31 0.33 4.62 0.66 7 1 C6 4 6 4 4 5.6875 C-0.06326776 7.46517964 -3.63097593 7.25700142 -8 7 C-8 6.34 -8 5.68 -8 5 C-6.576875 4.87625 -6.576875 4.87625 -5.125 4.75 C-1.89538209 4.34925077 -1.89538209 4.34925077 -0.625 1.9375 C-0.41875 1.298125 -0.2125 0.65875 0 0 Z " fill="#2692CD" transform="translate(117,24)"/>
<path d="M0 0 C0.66 0.99 1.32 1.98 2 3 C1.67 3.99 1.34 4.98 1 6 C-0.9609375 6.94921875 -0.9609375 6.94921875 -3.375 7.6875 C-4.16648438 7.93886719 -4.95796875 8.19023437 -5.7734375 8.44921875 C-8 9 -8 9 -11 9 C-10 6 -10 6 -8 4 C-6.68 4 -5.36 4 -4 4 C-4 3.34 -4 2.68 -4 2 C-2.68 2 -1.36 2 0 2 C0 1.34 0 0.68 0 0 Z " fill="#31347E" transform="translate(136,183)"/>
<path d="M0 0 C0.33 1.32 0.66 2.64 1 4 C3.31 4.33 5.62 4.66 8 5 C8 5.99 8 6.98 8 8 C4.04 8 0.08 8 -4 8 C-3.67 6.68 -3.34 5.36 -3 4 C-2.34 3.67 -1.68 3.34 -1 3 C-0.67 2.01 -0.34 1.02 0 0 Z " fill="#E9F4F8" transform="translate(106,36)"/>
<path d="M0 0 C1.423125 0.2784375 1.423125 0.2784375 2.875 0.5625 C5.89868793 1.28686632 5.89868793 1.28686632 8 0 C8.33 1.65 8.66 3.3 9 5 C6 7 6 7 3.9375 6.75 C2 6 2 6 0 4 C0 2.68 0 1.36 0 0 Z " fill="#2B327E" transform="translate(57,179)"/>
<path d="M0 0 C0.33 0 0.66 0 1 0 C1.1953125 6.0546875 1.1953125 6.0546875 1 8 C-1 10 -1 10 -4 11 C-4.99 11.495 -4.99 11.495 -6 12 C-7.9453125 11.44140625 -7.9453125 11.44140625 -10.125 10.5625 C-10.84945312 10.27503906 -11.57390625 9.98757812 -12.3203125 9.69140625 C-12.87460938 9.46324219 -13.42890625 9.23507813 -14 9 C-14 8.67 -14 8.34 -14 8 C-12.906875 7.87625 -11.81375 7.7525 -10.6875 7.625 C-6.92618198 7.24535199 -6.92618198 7.24535199 -4 5 C-4 5.66 -4 6.32 -4 7 C-3.34 7 -2.68 7 -2 7 C-1.34 4.69 -0.68 2.38 0 0 Z " fill="#4191C6" transform="translate(101,36)"/>
<path d="M0 0 C1.32 0 2.64 0 4 0 C3.14285714 8.57142857 3.14285714 8.57142857 1 12 C0.01 11.67 -0.98 11.34 -2 11 C-1.34 7.37 -0.68 3.74 0 0 Z " fill="#288BC8" transform="translate(98,32)"/>
<path d="M0 0 C1.43931117 0.45261358 2.87638999 0.91232979 4.3125 1.375 C5.11300781 1.63023438 5.91351563 1.88546875 6.73828125 2.1484375 C9 3 9 3 12 5 C8.12315913 6.19287411 5.08378077 7 1 7 C0.67 4.69 0.34 2.38 0 0 Z " fill="#2F9FD6" transform="translate(127,8)"/>
<path d="M0 0 C0.33 0.33 0.66 0.66 1 1 C2.99958364 1.04080783 5.00045254 1.04254356 7 1 C7 1.66 7 2.32 7 3 C7.66 3.33 8.32 3.66 9 4 C8.67 4.66 8.34 5.32 8 6 C2.72 4.68 -2.56 3.36 -8 2 C-4.77786243 -0.14809171 -3.72224599 -0.29386153 0 0 Z " fill="#394E90" transform="translate(103,153)"/>
<path d="M0 0 C2.64 0 5.28 0 8 0 C8.268125 0.804375 8.53625 1.60875 8.8125 2.4375 C9.204375 3.283125 9.59625 4.12875 10 5 C10.99 5.33 11.98 5.66 13 6 C8.02693484 5.50269348 4.36200187 4.44697666 0 2 C0 1.34 0 0.68 0 0 Z " fill="#3D4387" transform="translate(78,177)"/>
<path d="M0 0 C3.82040804 2.06508543 5.27845852 3.37127803 8 7 C4.04 7 0.08 7 -4 7 C-3 5 -3 5 0 4 C0 2.68 0 1.36 0 0 Z " fill="#3294CA" transform="translate(159,25)"/>
<path d="M0 0 C3.66881155 0.70554068 6.70450534 2.27735506 10 4 C9.67 5.32 9.34 6.64 9 8 C8.34 8 7.68 8 7 8 C7 7.34 7 6.68 7 6 C4.69 5.34 2.38 4.68 0 4 C0 2.68 0 1.36 0 0 Z " fill="#2B83C0" transform="translate(120,48)"/>
<path d="M0 0 C0.33 0.66 0.66 1.32 1 2 C0 5 0 5 -2 6 C-1.67 6.66 -1.34 7.32 -1 8 C-1.99 8 -2.98 8 -4 8 C-4 7.34 -4 6.68 -4 6 C-4.66 6 -5.32 6 -6 6 C-6 5.01 -6 4.02 -6 3 C-6.99 3.33 -7.98 3.66 -9 4 C-9.66 3.34 -10.32 2.68 -11 2 C-10.28972656 1.93941406 -9.57945313 1.87882813 -8.84765625 1.81640625 C-7.46900391 1.69072266 -7.46900391 1.69072266 -6.0625 1.5625 C-5.14597656 1.48128906 -4.22945312 1.40007812 -3.28515625 1.31640625 C-1.03840268 1.23955024 -1.03840268 1.23955024 0 0 Z " fill="#2A3B84" transform="translate(46,166)"/>
<path d="M0 0 C1.65 0.33 3.3 0.66 5 1 C5 2.65 5 4.3 5 6 C4.195625 6.12375 3.39125 6.2475 2.5625 6.375 C1.2940625 6.684375 1.2940625 6.684375 0 7 C-0.33 7.66 -0.66 8.32 -1 9 C-1.66 9 -2.32 9 -3 9 C-2.67 7.35 -2.34 5.7 -2 4 C-1.34 4 -0.68 4 0 4 C0 2.68 0 1.36 0 0 Z " fill="#2C4D91" transform="translate(163,138)"/>
<path d="M0 0 C0.66 0 1.32 0 2 0 C4 2 4 2 4.3125 4.5 C4.209375 5.325 4.10625 6.15 4 7 C3.01 7.66 2.02 8.32 1 9 C0.01 8.67 -0.98 8.34 -2 8 C-2.20086443 4.28400809 -2.1519437 3.22791555 0 0 Z " fill="#2869A7" transform="translate(42,88)"/>
<path d="M0 0 C5.61 0 11.22 0 17 0 C17 0.33 17 0.66 17 1 C14.03 1 11.06 1 8 1 C8 1.66 8 2.32 8 3 C5.69 3.33 3.38 3.66 1 4 C0.67 2.68 0.34 1.36 0 0 Z " fill="#424588" transform="translate(84,187)"/>
<path d="M0 0 C3.16115776 1.36983503 3.9927092 1.9890638 6 5 C6 5.99 6 6.98 6 8 C2.54074837 6.7508258 -0.14693203 5.32472205 -3 3 C-2.01 2.67 -1.02 2.34 0 2 C0 1.34 0 0.68 0 0 Z " fill="#426EA6" transform="translate(128,104)"/>
<path d="M0 0 C-1.2065625 0.6496875 -1.2065625 0.6496875 -2.4375 1.3125 C-5.27846354 2.80474002 -5.27846354 2.80474002 -6 6 C-8.64 5.67 -11.28 5.34 -14 5 C-10.22819533 0.64791769 -5.77677493 -2.22183651 0 0 Z " fill="#35A5D9" transform="translate(78,8)"/>
<path d="M0 0 C2.31 0.33 4.62 0.66 7 1 C7 1.99 7 2.98 7 4 C7.66 4 8.32 4 9 4 C9.66 5.32 10.32 6.64 11 8 C7.24026115 8 6.54322371 7.03457593 3.8125 4.5625 C3.09707031 3.92441406 2.38164063 3.28632813 1.64453125 2.62890625 C1.10183594 2.09136719 0.55914062 1.55382812 0 1 C0 0.67 0 0.34 0 0 Z " fill="#3C4985" transform="translate(33,168)"/>
<path d="M0 0 C0.33 0 0.66 0 1 0 C1.33663062 3.70293685 1.47736015 5.39534381 -0.875 8.375 C-3 10 -3 10 -5 10 C-5.33 9.01 -5.66 8.02 -6 7 C-5.34 6.67 -4.68 6.34 -4 6 C-3.34444881 3.47266765 -3.34444881 3.47266765 -3 1 C-2.34 1.66 -1.68 2.32 -1 3 C-0.67 2.01 -0.34 1.02 0 0 Z " fill="#2E367D" transform="translate(109,171)"/>
<path d="M0 0 C0.33 0.99 0.66 1.98 1 3 C1.99 3.33 2.98 3.66 4 4 C4 5.32 4 6.64 4 8 C1.03 7.505 1.03 7.505 -2 7 C-2.125 4.625 -2.125 4.625 -2 2 C-1.34 1.34 -0.68 0.68 0 0 Z " fill="#2B81BF" transform="translate(178,48)"/>
<path d="M0 0 C0 0.99 0 1.98 0 3 C-0.33 3.33 -0.66 3.66 -1 4 C-0.34 4.66 0.32 5.32 1 6 C0.01 7.485 0.01 7.485 -1 9 C-2.65 8.67 -4.3 8.34 -6 8 C-4.6875 4.5625 -4.6875 4.5625 -3 1 C-2.01 0.67 -1.02 0.34 0 0 Z " fill="#288CC8" transform="translate(143,31)"/>
<path d="M0 0 C0.33 0.66 0.66 1.32 1 2 C-0.75 4 -0.75 4 -3 6 C-4.32 6 -5.64 6 -7 6 C-7.33 6.99 -7.66 7.98 -8 9 C-11.0625 10.1875 -11.0625 10.1875 -14 11 C-9.85989729 6.45924219 -5.17609824 3.28157862 0 0 Z " fill="#3C9BCD" transform="translate(50,18)"/>
<path d="M0 0 C1.98 0 3.96 0 6 0 C5.67 0.66 5.34 1.32 5 2 C4.34 1.67 3.68 1.34 3 1 C3.33 1.99 3.66 2.98 4 4 C2.02 4.66 0.04 5.32 -2 6 C-2.66 5.34 -3.32 4.68 -4 4 C-2.68 3.34 -1.36 2.68 0 2 C0 1.34 0 0.68 0 0 Z " fill="#2D2E7C" transform="translate(92,188)"/>
<path d="M0 0 C0.103125 0.639375 0.20625 1.27875 0.3125 1.9375 C0.539375 2.618125 0.76625 3.29875 1 4 C1.99 4.33 2.98 4.66 4 5 C2.02 7.31 0.04 9.62 -2 12 C-3.40907283 9.18185434 -2.50872691 7.82722796 -1.5625 4.875 C-1.27503906 3.96492187 -0.98757812 3.05484375 -0.69140625 2.1171875 C-0.46324219 1.41851562 -0.23507813 0.71984375 0 0 Z " fill="#E1E6F0" transform="translate(142,164)"/>
<path d="M0 0 C0.33 0 0.66 0 1 0 C1.36923077 6.4 1.36923077 6.4 -0.5 9.4375 C-0.995 9.953125 -1.49 10.46875 -2 11 C-2.99 10.67 -3.98 10.34 -5 10 C-3.35 6.7 -1.7 3.4 0 0 Z " fill="#425493" transform="translate(159,148)"/>
<path d="M0 0 C0.66 0 1.32 0 2 0 C2.93131785 3.04794934 3.29757762 4.42050674 1.8125 7.3125 C0 9 0 9 -4 9 C-4 8.01 -4 7.02 -4 6 C-3.01 6 -2.02 6 -1 6 C-0.67 4.02 -0.34 2.04 0 0 Z " fill="#255396" transform="translate(64,127)"/>
<path d="M0 0 C0.66 0.33 1.32 0.66 2 1 C2.05402274 3.10388569 2.09280256 5.20816714 2.125 7.3125 C2.14820313 8.48425781 2.17140625 9.65601563 2.1953125 10.86328125 C2 14 2 14 0 17 C-0.33 16.67 -0.66 16.34 -1 16 C-0.909084 13.29891496 -0.76259234 10.63069689 -0.5625 7.9375 C-0.51029297 7.17888672 -0.45808594 6.42027344 -0.40429688 5.63867188 C-0.27424165 3.75878278 -0.13771962 1.87934315 0 0 Z " fill="#295291" transform="translate(166,120)"/>
<path d="M0 0 C2.64 0.33 5.28 0.66 8 1 C8 2.32 8 3.64 8 5 C5.36 4.67 2.72 4.34 0 4 C0 2.68 0 1.36 0 0 Z " fill="#388BC4" transform="translate(67,40)"/>
<path d="M0 0 C0.99 0 1.98 0 3 0 C3 1.98 3 3.96 3 6 C1.02 6.66 -0.96 7.32 -3 8 C-1.125 1.125 -1.125 1.125 0 0 Z " fill="#2295D2" transform="translate(146,18)"/>
<path d="M0 0 C0.66 0 1.32 0 2 0 C2 0.99 2 1.98 2 3 C3.98 3.66 5.96 4.32 8 5 C7.34 6.32 6.68 7.64 6 9 C6 8.01 6 7.02 6 6 C4.02 6 2.04 6 0 6 C0 4.02 0 2.04 0 0 Z " fill="#359DD2" transform="translate(88,18)"/>
<path d="M0 0 C0.66 0 1.32 0 2 0 C2.33 1.98 2.66 3.96 3 6 C2.01 6 1.02 6 0 6 C0 6.66 0 7.32 0 8 C-0.66 8 -1.32 8 -2 8 C-2.6875 6.25 -2.6875 6.25 -3 4 C-1.6875 1.75 -1.6875 1.75 0 0 Z " fill="#2A2F7B" transform="translate(69,182)"/>
<path d="M0 0 C-0.33 0.99 -0.66 1.98 -1 3 C-4.5625 4.6875 -4.5625 4.6875 -8 6 C-8 3 -8 3 -6.8125 1.3125 C-4.44258278 -0.40364695 -2.85974334 -0.23187108 0 0 Z " fill="#337DB7" transform="translate(73,68)"/>
<path d="M0 0 C2.31 0.33 4.62 0.66 7 1 C6.625 3.4375 6.625 3.4375 6 6 C5.01 6.495 5.01 6.495 4 7 C4 5.68 4 4.36 4 3 C2.35 2.67 0.7 2.34 -1 2 C-0.67 1.34 -0.34 0.68 0 0 Z " fill="#FCFBF9" transform="translate(89,33)"/>
<path d="M0 0 C2.375 0.25 2.375 0.25 5 1 C6.3125 3.0625 6.3125 3.0625 7 5 C5.35 5.66 3.7 6.32 2 7 C2.04125 6.21625 2.0825 5.4325 2.125 4.625 C2.28728734 1.83883881 2.28728734 1.83883881 0 0 Z " fill="#292E77" transform="translate(76,185)"/>
<path d="M0 0 C3.96 0.99 3.96 0.99 8 2 C8 2.66 8 3.32 8 4 C4.7 4 1.4 4 -2 4 C-1.34 2.68 -0.68 1.36 0 0 Z " fill="#345793" transform="translate(90,137)"/>
<path d="M0 0 C2.33944736 0.28730055 4.6739143 0.61936779 7 1 C7 1.33 7 1.66 7 2 C5.906875 2.12375 4.81375 2.2475 3.6875 2.375 C-0.07381802 2.75464801 -0.07381802 2.75464801 -3 5 C-6.6875 4.625 -6.6875 4.625 -10 4 C-10 3.67 -10 3.34 -10 3 C-9.04287109 2.80083984 -9.04287109 2.80083984 -8.06640625 2.59765625 C-7.24011719 2.42105469 -6.41382812 2.24445312 -5.5625 2.0625 C-4.73878906 1.88847656 -3.91507812 1.71445312 -3.06640625 1.53515625 C-1.02338796 1.19247006 -1.02338796 1.19247006 0 0 Z " fill="#468EC2" transform="translate(79,46)"/>
<path d="M0 0 C1.9375 0.625 1.9375 0.625 4 2 C4.75 5.125 4.75 5.125 5 8 C3.35 8 1.7 8 0 8 C0.66 6.35 1.32 4.7 2 3 C1.34 2.67 0.68 2.34 0 2 C0 1.34 0 0.68 0 0 Z " fill="#2A4A8B" transform="translate(131,137)"/>
<path d="M0 0 C1 3 1 3 1 7 C0.01 7 -0.98 7 -2 7 C-2 7.99 -2 8.98 -2 10 C-1.01 10.33 -0.02 10.66 1 11 C-0.65 11 -2.3 11 -4 11 C-3.52269162 9.5410574 -3.04308958 8.08286504 -2.5625 6.625 C-2.29566406 5.81289062 -2.02882812 5.00078125 -1.75390625 4.1640625 C-1 2 -1 2 0 0 Z " fill="#3E6098" transform="translate(62,126)"/>
<path d="M0 0 C0.99 0 1.98 0 3 0 C3.09688221 5.44693314 3.12862175 10.63904667 2 16 C1.67 16 1.34 16 1 16 C1.01160156 15.09636719 1.02320313 14.19273438 1.03515625 13.26171875 C1.04417969 12.08222656 1.05320313 10.90273437 1.0625 9.6875 C1.07410156 8.51574219 1.08570313 7.34398438 1.09765625 6.13671875 C1.14899898 2.96940805 1.14899898 2.96940805 0 0 Z " fill="#335E9B" transform="translate(192,104)"/>
<path d="M0 0 C0.91307373 3.08162384 1.41112802 5.79320141 1 9 C-1 10.8125 -1 10.8125 -3 12 C-2.49202991 7.6822542 -1.80317221 3.96697886 0 0 Z " fill="#3B81B8" transform="translate(11,63)"/>
<path d="M0 0 C1.96217707 2.9432656 3.58240698 5.75978738 5 9 C4.67 9.99 4.34 10.98 4 12 C3.34 12 2.68 12 2 12 C2 10.68 2 9.36 2 8 C1.34 7.67 0.68 7.34 0 7 C0 4.69 0 2.38 0 0 Z " fill="#4085BA" transform="translate(185,56)"/>
<path d="M0 0 C3.3 0.33 6.6 0.66 10 1 C7.01193893 2.49403054 4.10343799 3.79310745 1 5 C0.67 3.35 0.34 1.7 0 0 Z " fill="#3295C9" transform="translate(64,26)"/>
<path d="M0 0 C0.33 0 0.66 0 1 0 C1.33 1.98 1.66 3.96 2 6 C-4.07439825 10.90153173 -4.07439825 10.90153173 -7.9375 11.3125 C-8.9584375 11.1578125 -8.9584375 11.1578125 -10 11 C-9.443125 10.7525 -8.88625 10.505 -8.3125 10.25 C-5.52479349 8.74313162 -3.30653497 7.1818574 -1 5 C-0.12056596 2.36539052 -0.12056596 2.36539052 0 0 Z " fill="#D0D4E7" transform="translate(110,172)"/>
<path d="M0 0 C2 3 2 3 2 6 C0.68 6 -0.64 6 -2 6 C-2.66 5.34 -3.32 4.68 -4 4 C-2.68 2.68 -1.36 1.36 0 0 Z " fill="#3D488B" transform="translate(147,168)"/>
<path d="M0 0 C1.65 1.65 3.3 3.3 5 5 C2.625 5.625 2.625 5.625 0 6 C-0.66 5.34 -1.32 4.68 -2 4 C-1.34 2.68 -0.68 1.36 0 0 Z " fill="#ECEFF5" transform="translate(65,168)"/>
<path d="M0 0 C-0.969375 0.268125 -1.93875 0.53625 -2.9375 0.8125 C-3.948125 1.204375 -4.95875 1.59625 -6 2 C-6.33 2.99 -6.66 3.98 -7 5 C-7.99 4.34 -8.98 3.68 -10 3 C-10 2.34 -10 1.68 -10 1 C-3.71428571 -1.42857143 -3.71428571 -1.42857143 0 0 Z " fill="#44508B" transform="translate(75,165)"/>
<path d="M0 0 C0.33 0.99 0.66 1.98 1 3 C2.65 3.33 4.3 3.66 6 4 C6 4.66 6 5.32 6 6 C5.360625 6.12375 4.72125 6.2475 4.0625 6.375 C3.0415625 6.684375 3.0415625 6.684375 2 7 C1.67 7.66 1.34 8.32 1 9 C0.34 9 -0.32 9 -1 9 C-0.67 6.03 -0.34 3.06 0 0 Z " fill="#42609B" transform="translate(162,133)"/>
<path d="M0 0 C0.66 0.33 1.32 0.66 2 1 C1.67 4.3 1.34 7.6 1 11 C0.01 9.68 -0.98 8.36 -2 7 C-1.1875 3.25 -1.1875 3.25 0 0 Z " fill="#2D538F" transform="translate(14,132)"/>
<path d="M0 0 C0.99 0 1.98 0 3 0 C3 0.66 3 1.32 3 2 C3.66 2.33 4.32 2.66 5 3 C3.35 4.32 1.7 5.64 0 7 C-0.93423645 3.98968256 -1.04449911 3.13349732 0 0 Z " fill="#296DA6" transform="translate(49,81)"/>
<path d="M0 0 C2.475 0.99 2.475 0.99 5 2 C4.67 2.99 4.34 3.98 4 5 C2.35 4.67 0.7 4.34 -1 4 C-1 1 -1 1 0 0 Z " fill="#E3F2F9" transform="translate(134,31)"/>
<path d="M0 0 C0.66 0 1.32 0 2 0 C2.125 2.875 2.125 2.875 2 6 C1.34 6.66 0.68 7.32 0 8 C-0.66 7.67 -1.32 7.34 -2 7 C-2 5.35 -2 3.7 -2 2 C-1.34 2 -0.68 2 0 2 C0 1.34 0 0.68 0 0 Z " fill="#2A387F" transform="translate(124,169)"/>
<path d="M0 0 C0 0.99 0 1.98 0 3 C-4.02040985 3.69584017 -7.08263419 4.1700097 -11 3 C-9.54293274 2.49632243 -8.08429904 1.99717444 -6.625 1.5 C-5.81289062 1.2215625 -5.00078125 0.943125 -4.1640625 0.65625 C-2 0 -2 0 0 0 Z " fill="#E7F4F7" transform="translate(84,66)"/>
<path d="M0 0 C2.64 0 5.28 0 8 0 C8 0.66 8 1.32 8 2 C5.29120665 3.35439668 2.99066732 3.06501451 0 3 C0 2.01 0 1.02 0 0 Z " fill="#F5FBF9" transform="translate(69,46)"/>
<path d="M0 0 C0.226875 0.61875 0.45375 1.2375 0.6875 1.875 C2.37929835 4.61410209 3.99244161 5.05024472 7 6 C7 6.66 7 7.32 7 8 C4.625 7.6875 4.625 7.6875 2 7 C0 4 0 4 0 0 Z " fill="#DBEFF7" transform="translate(64,33)"/>
<path d="M0 0 C0.33 0 0.66 0 1 0 C2.10643764 5.83394389 2.27137992 8.76579213 -1 14 C-2.13732426 10.59598052 -1.83989957 8.22543336 -1.0625 4.75 C-0.86785156 3.85796875 -0.67320312 2.9659375 -0.47265625 2.046875 C-0.31667969 1.37140625 -0.16070312 0.6959375 0 0 Z " fill="#D7E5F0" transform="translate(195,110)"/>
<path d="M0 0 C0.33 0.99 0.66 1.98 1 3 C0.01 4.485 0.01 4.485 -1 6 C-0.01 6.33 0.98 6.66 2 7 C2 7.33 2 7.66 2 8 C0.02 8.33 -1.96 8.66 -4 9 C-2.94124926 5.59687262 -1.99097846 2.98646769 0 0 Z " fill="#4289BD" transform="translate(19,48)"/>
<path d="M0 0 C2.31 0 4.62 0 7 0 C6.67 0.99 6.34 1.98 6 3 C4.02 3 2.04 3 0 3 C0 2.01 0 1.02 0 0 Z " fill="#FBFCF7" transform="translate(127,30)"/>
<path d="M0 0 C2.31 0 4.62 0 7 0 C7 0.99 7 1.98 7 3 C4.69 3 2.38 3 0 3 C0 2.01 0 1.02 0 0 Z " fill="#F9FAF9" transform="translate(87,24)"/>
<path d="M0 0 C2.56616632 3.84924948 2.55097676 6.4349304 3 11 C2.01 10.67 1.02 10.34 0 10 C0 6.7 0 3.4 0 0 Z " fill="#465B93" transform="translate(140,147)"/>
<path d="M0 0 C2.62187494 1.04874998 3.79371361 1.64931313 5.25 4.125 C5.4975 4.74375 5.745 5.3625 6 6 C5.01 6.495 5.01 6.495 4 7 C1 5 1 5 0.3125 2.375 C0.209375 1.59125 0.10625 0.8075 0 0 Z " fill="#3E8EC4" transform="translate(173,40)"/>
<path d="M0 0 C0.33 0 0.66 0 1 0 C1.309375 0.94875 1.61875 1.8975 1.9375 2.875 C2.87394742 5.86080408 2.87394742 5.86080408 4 8 C1.83125748 7.49396008 0.00032373 7.00016187 -2 6 C-2.625 3.9375 -2.625 3.9375 -3 2 C-2.01 2 -1.02 2 0 2 C0 1.34 0 0.68 0 0 Z " fill="#3D91C9" transform="translate(119,40)"/>
<path d="M0 0 C2.97 0 5.94 0 9 0 C9 1.98 9 3.96 9 6 C8.443125 5.54625 7.88625 5.0925 7.3125 4.625 C4.94686561 2.96266232 2.70984342 1.97855457 0 1 C0 0.67 0 0.34 0 0 Z " fill="#4398CD" transform="translate(88,30)"/>
<path d="M0 0 C-3.63423209 2.32590854 -6.77088331 2.16265833 -11 2 C-7.61000833 -3.0849875 -5.18660142 -1.95938276 0 0 Z " fill="#2D92C9" transform="translate(44,30)"/>
<path d="M0 0 C1.65 0 3.3 0 5 0 C3.35 1.98 1.7 3.96 0 6 C-1.125 2.25 -1.125 2.25 0 0 Z " fill="#3F4D88" transform="translate(162,168)"/>
<path d="M0 0 C2.89932357 2.39509338 3.50168276 4.31245243 4 8 C2.02 6.68 0.04 5.36 -2 4 C-1.34 3.67 -0.68 3.34 0 3 C0 2.01 0 1.02 0 0 Z " fill="#C9D5E6" transform="translate(130,144)"/>
<path d="M0 0 C1.2065625 0.0309375 1.2065625 0.0309375 2.4375 0.0625 C2.4375 1.0525 2.4375 2.0425 2.4375 3.0625 C0.7875 3.3925 -0.8625 3.7225 -2.5625 4.0625 C-2.8925 3.0725 -3.2225 2.0825 -3.5625 1.0625 C-2.5625 0.0625 -2.5625 0.0625 0 0 Z " fill="#2C4A8F" transform="translate(20.5625,143.9375)"/>
<path d="M0 0 C4.95 0.99 4.95 0.99 10 2 C8.68 3.32 7.36 4.64 6 6 C5.67 4.68 5.34 3.36 5 2 C3.35 1.67 1.7 1.34 0 1 C0 0.67 0 0.34 0 0 Z " fill="#3E5996" transform="translate(110,142)"/>
<path d="M0 0 C0.66 0.33 1.32 0.66 2 1 C1.34 2.65 0.68 4.3 0 6 C-1.32 5.34 -2.64 4.68 -4 4 C-2.68 2.68 -1.36 1.36 0 0 Z " fill="#EEF3F3" transform="translate(70,122)"/>
<path d="M0 0 C1.41687119 4.25061356 0.19320039 6.71851625 -1 11 C-1.33 11 -1.66 11 -2 11 C-2.05399736 9.54207116 -2.09279177 8.08357288 -2.125 6.625 C-2.15980469 5.40683594 -2.15980469 5.40683594 -2.1953125 4.1640625 C-2 2 -2 2 0 0 Z " fill="#38669C" transform="translate(39,105)"/>
<path d="M0 0 C0.99 0.99 1.98 1.98 3 3 C2.01 4.485 2.01 4.485 1 6 C0.01 6 -0.98 6 -2 6 C-1.34 4.02 -0.68 2.04 0 0 Z " fill="#38478B" transform="translate(52,168)"/>
<path d="M0 0 C2.64 0.33 5.28 0.66 8 1 C7.360625 1.12375 6.72125 1.2475 6.0625 1.375 C5.381875 1.58125 4.70125 1.7875 4 2 C3.67 2.66 3.34 3.32 3 4 C2.01 3.34 1.02 2.68 0 2 C0 1.34 0 0.68 0 0 Z " fill="#E2E8F5" transform="translate(94,155)"/>
<path d="M0 0 C3.00617269 3.00617269 2.59585316 5.82381598 3 10 C2.67 9.01 2.34 8.02 2 7 C1.34 7 0.68 7 0 7 C0 4.69 0 2.38 0 0 Z " fill="#3F9BD1" transform="translate(100,25)"/>
</svg>
